<?xml version="1.0" encoding="UTF-8" standalone="no"?>
<!-- Created with Inkscape (http://www.inkscape.org/) -->

<svg
   xmlns:dc="http://purl.org/dc/elements/1.1/"
   xmlns:cc="http://creativecommons.org/ns#"
   xmlns:rdf="http://www.w3.org/1999/02/22-rdf-syntax-ns#"
   xmlns:svg="http://www.w3.org/2000/svg"
   xmlns="http://www.w3.org/2000/svg"
   xmlns:sodipodi="http://sodipodi.sourceforge.net/DTD/sodipodi-0.dtd"
   xmlns:inkscape="http://www.inkscape.org/namespaces/inkscape"
   version="1.0"
   width="1800pt"
   height="600pt"
   id="svg2"
   sodipodi:docname="Sine_waves_different_frequencies.svg"
   inkscape:version="0.92.2 (5c3e80d, 2017-08-06)">
  <metadata
     id="metadata15">
    <rdf:RDF>
      <cc:Work
         rdf:about="">
        <dc:format>image/svg+xml</dc:format>
        <dc:type
           rdf:resource="http://purl.org/dc/dcmitype/StillImage" />
      </cc:Work>
    </rdf:RDF>
  </metadata>
  <sodipodi:namedview
     pagecolor="#ffffff"
     bordercolor="#666666"
     borderopacity="1"
     objecttolerance="10"
     gridtolerance="10"
     guidetolerance="10"
     inkscape:pageopacity="0"
     inkscape:pageshadow="2"
     inkscape:window-width="1600"
     inkscape:window-height="874"
     id="namedview13"
     showgrid="false"
     inkscape:zoom="0.36887404"
     inkscape:cx="933.41817"
     inkscape:cy="605.12812"
     inkscape:window-x="0"
     inkscape:window-y="0"
     inkscape:window-maximized="1"
     inkscape:current-layer="g1430" />
  <defs
     id="defs4" />
  <g
     id="layer1">
    <g
       transform="matrix(0.312578,0,0,0.552047,68.91378,101.167)"
       id="g1430">
      <path
         d="m -241.20964,11.66977 c 164.576515,49.972612 329.153147,99.94522 516.77035,99.94522 M 791.85644,11.668071 C 627.27993,61.640683 462.70341,111.61329 275.08608,111.61329 M 791.82426,11.676666 c 164.57652,-49.972612 329.15304,-99.945222 516.77024,-99.945222 m 516.2956,99.946921 C 1660.3135,-38.294247 1495.737,-88.266857 1308.12,-88.266857 m 517.0275,99.966711 c 164.5765,49.972612 329.1531,99.945226 516.7703,99.945226 m 516.2958,-99.946925 c -164.5765,49.972612 -329.1532,99.945225 -516.7704,99.945225 m 516.7364,-99.93663 c 164.5767,-49.972612 329.1532,-99.945222 516.7704,-99.945222 m 516.2957,99.946921 C 3726.6693,-38.264163 3562.0926,-88.236773 3374.4753,-88.236773 M 3891.15,11.684262 c 164.5766,49.972612 329.1531,99.945218 516.7703,99.945218 M 4924.2161,11.682563 C 4759.6395,61.655175 4595.063,111.62779 4407.4457,111.62779 m 516.7364,-99.936632 c 164.5766,-49.972612 329.1531,-99.945222 516.7706,-99.945222 m 516.2957,99.946921 c -164.5766,-49.972612 -329.1531,-99.945222 -516.7703,-99.945222 m 516.7489,99.937727 c 164.5766,49.972612 329.1531,99.945218 516.7703,99.945218 M 6990.293,11.683663 c -164.5765,49.972612 -329.1532,99.945217 -516.7704,99.945217 m 516.7382,-99.936622 c 164.5766,-49.972612 329.153,-99.945222 516.7703,-99.945222"
         style="fill:none;fill-opacity:0.75;fill-rule:evenodd;stroke:#ff0000;stroke-width:14.83552933;stroke-linecap:butt;stroke-linejoin:miter;stroke-miterlimit:4;stroke-dasharray:none;stroke-opacity:1"
         id="path1360"
         inkscape:connector-curvature="0" />
      <g
         transform="translate(-224,-2)"
         id="g1384">
        <g
           transform="translate(6.14935,-66.0035)"
           id="g1321" />
      </g>
      <path
         d="m 174.05613,265.29446 c -136.6589,-50 -273.317609,-100 -429.10868,-100 m 429.091,99.9925 c 136.65869,50 273.31785,100 429.10868,100 m 428.71457,-100.0017 c -136.65885,50 -273.31766,100 -429.10873,100 m 429.08213,-99.9914 c 136.6588,-50 273.3176,-100 429.1086,-100 m 428.7142,100.0017 c -136.6587,-50 -273.3175,-100 -429.1084,-100 m 429.027,99.9758 c 136.6588,50 273.3176,100 429.1089,100 M 2747.4,265.26966 c -136.6589,50 -273.3178,100 -429.1089,100 m 429.0819,-99.9914 c 136.659,-50 273.3178,-100 429.109,-100 m 428.7145,100.0017 c -136.6588,-50 -273.3178,-100 -429.1087,-100 m 429.3225,100.0215 c 136.6587,50 273.3175,100 429.1087,100 m 428.7146,-100.0017 c -136.6589,50 -273.3176,100 -429.1088,100 m 429.0804,-99.9914 c 136.659,-50 273.3178,-100 429.109,-100 m 428.7147,100.0017 c -136.6587,-50 -273.3178,-100 -429.1088,-100 m 429.0291,99.9758 c 136.659,50 273.3178,100 429.1088,100 m 428.7146,-100.0017 c -136.6588,50 -273.3175,100 -429.1085,100 m 429.0804,-99.9914 c 136.6588,-50 273.3176,-100 429.1089,-100 m 428.7145,100.0017 c -136.6588,-50 -273.3178,-100 -429.1088,-100 m 429.0911,99.9925 c 136.6587,50 273.3176,100 429.1085,100"
         style="fill:none;fill-opacity:0.75;fill-rule:evenodd;stroke:#ff8d00;stroke-width:14.73648262;stroke-linecap:butt;stroke-linejoin:miter;stroke-miterlimit:4;stroke-dasharray:none;stroke-opacity:1"
         id="path4058"
         inkscape:connector-curvature="0" />
      <path
         d="m 103.62857,518.88576 c -106.9331141,50 -213.86614,100 -335.77003,100 m 335.74794,-99.9914 c 106.93306,-50 213.86605,-100 335.76982,-100 m 335.46137,100.0017 c -106.93311,-50 -213.8661,-100 -335.76975,-100 m 335.75591,99.9925 c 106.933,50 213.86633,100 335.76987,100 m 335.4612,-100.0017 c -106.933,50 -213.866,100 -335.7697,100 m 335.7488,-99.9914 c 106.933,-50 213.8661,-100 335.7697,-100 m 335.4614,100.0017 c -106.9329,-50 -213.866,-100 -335.7698,-100 m 335.7061,99.9758 c 106.9331,50 213.8662,100 335.7701,100 m 335.4612,-100.0017 c -106.9331,50 -213.8661,100 -335.7698,100 m 335.7489,-99.9914 c 106.9332,-50 213.8662,-100 335.77,-100 m 335.4613,100.0017 c -106.933,-50 -213.8662,-100 -335.7697,-100 m 335.937,100.0215 c 106.933,50 213.8661,100 335.7698,100 m 335.4615,-100.0017 c -106.9332,50 -213.866,100 -335.7699,100 m 335.7478,-99.9914 c 106.933,-50 213.8661,-100 335.7699,-100 m 335.4616,100.0017 c -106.9331,-50 -213.8664,-100 -335.7699,-100 m 335.7075,99.9758 c 106.9332,50 213.8663,100 335.7699,100 M 5473.42,518.88576 c -106.9329,50 -213.866,100 -335.7696,100 m 335.7477,-99.9914 c 106.933,-50 213.8661,-100 335.7698,-100 m 335.4614,100.0017 c -106.933,-50 -213.8662,-100 -335.7699,-100 m 335.756,99.9925 c 106.9331,50 213.8662,100 335.7698,100 m 335.4616,-100.0017 c -106.9331,50 -213.8662,100 -335.7699,100 m 335.749,-99.9914 c 106.9331,-50 213.866,-100 335.7699,-100 m 335.4615,100.0017 c -106.9334,-50 -213.8662,-100 -335.77,-100"
         style="fill:none;fill-opacity:0.75;fill-rule:evenodd;stroke:#00a900;stroke-width:14.682271;stroke-linecap:butt;stroke-linejoin:miter;stroke-miterlimit:4;stroke-dasharray:none;stroke-opacity:1"
         id="path5806"
         inkscape:connector-curvature="0" />
      <path
         d="m -226.92667,772.50465 c 76.59442,49.97567 153.188975,99.95133 240.506673,99.95133 M 253.86579,772.50296 c -76.59451,49.97566 -153.1889,99.95133 -240.506696,99.95133 M 253.84998,772.51155 c 76.59466,-49.97566 153.18907,-99.95133 240.50674,-99.95133 m 240.28595,99.95303 C 658.04802,722.53758 581.45359,672.56192 494.13581,672.56192 m 240.46221,99.92714 c 76.59454,49.97567 153.18896,99.95133 240.50674,99.95133 m 240.28594,-99.95303 c -76.5947,49.97567 -153.1889,99.95133 -240.50684,99.95133 m 240.49094,-99.94273 c 76.5945,-49.97567 153.1889,-99.95133 240.5068,-99.95133 m 240.2855,99.95303 c -76.5944,-49.97567 -153.1889,-99.95133 -240.5064,-99.95133 m 240.4966,99.94383 c 76.5942,49.97567 153.1889,99.95133 240.5065,99.95133 m 240.2859,-99.95303 c -76.5946,49.97567 -153.1891,99.95133 -240.5067,99.95133 m 240.4917,-99.94273 c 76.5945,-49.97567 153.1891,-99.95133 240.5066,-99.95133 m 240.286,99.95303 c -76.5946,-49.97567 -153.189,-99.95133 -240.5068,-99.95133 m 240.4612,99.92714 c 76.5943,49.97566 153.189,99.95133 240.5067,99.95133 m 240.2858,-99.95303 c -76.5945,49.97567 -153.1891,99.95133 -240.5068,99.95133 m 240.4918,-99.94273 c 76.5945,-49.97567 153.189,-99.95133 240.507,-99.95133 m 240.2855,99.95302 c -76.5944,-49.97566 -153.189,-99.95133 -240.5066,-99.95133 m 240.6264,99.97282 c 76.5945,49.97567 153.1889,99.95133 240.5069,99.95133 m 240.2857,-99.95302 c -76.5944,49.97566 -153.1889,99.95133 -240.5068,99.95133 m 240.4909,-99.94274 c 76.5946,-49.97566 153.1891,-99.95133 240.5069,-99.95133 m 240.286,99.95303 c -76.5946,-49.97567 -153.1893,-99.95133 -240.5069,-99.95133 m 240.4621,99.92714 c 76.5946,49.97567 153.1891,99.95133 240.5067,99.95133 m 240.2859,-99.95303 c -76.5944,49.97567 -153.189,99.95133 -240.5066,99.95133 m 240.4909,-99.94273 c 76.5944,-49.97567 153.1889,-99.95133 240.5067,-99.95133 m 240.2857,99.95303 c -76.5944,-49.97567 -153.1889,-99.95133 -240.5067,-99.95133 m 240.4969,99.94383 c 76.5945,49.97567 153.1891,99.95133 240.5066,99.95133 m 240.2859,-99.95303 c -76.5945,49.97567 -153.189,99.95133 -240.5066,99.95133 m 240.4916,-99.94273 c 76.5946,-49.97567 153.189,-99.95133 240.5068,-99.95133 m 240.2859,99.95303 c -76.5946,-49.97567 -153.189,-99.95133 -240.5068,-99.95133 m 240.461,99.92714 c 76.5947,49.97566 153.1888,99.95133 240.5065,99.95133 m 240.2858,-99.95303 c -76.5941,49.97567 -153.1888,99.95133 -240.5064,99.95133 m 240.4913,-99.94273 c 76.5947,-49.97567 153.1894,-99.95133 240.5069,-99.95133 m 240.2859,99.95302 C 7388.9556,722.5075 7312.361,672.53183 7225.0433,672.53183"
         style="fill:none;fill-opacity:0.75;fill-rule:evenodd;stroke:#0000da;stroke-width:14.62284279;stroke-linecap:butt;stroke-linejoin:miter;stroke-miterlimit:4;stroke-dasharray:none;stroke-opacity:1"
         id="path6681"
         inkscape:connector-curvature="0" />
      <path
         d="m -229.20802,1029.7291 c 38.32615,50 76.6523,100 120.34405,100 M 11.369564,1029.7274 c -38.326168,50 -76.652226,100 -120.344114,100 M 11.361684,1029.736 C 49.687852,979.73606 88.01402,929.73606 131.70577,929.73606 M 251.9392,1029.7377 C 213.61307,979.73776 175.28704,929.73776 131.59519,929.73776 m 120.3214,99.97574 c 38.32613,50 76.65215,100 120.34402,100 m 120.23348,-100.0017 c -38.32615,50 -76.6523,100 -120.34406,100 m 120.33618,-99.9914 c 38.32615,-49.99994 76.6523,-99.99994 120.34406,-99.99994 M 733.06375,1029.7221 C 694.7376,979.72216 656.41145,929.72216 612.71969,929.72216 m 120.33911,99.99244 c 38.32615,50 76.65219,100 120.34406,100 m 120.23347,-100.0017 c -38.32615,50 -76.6523,100 -120.34406,100 m 120.3363,-99.9914 c 38.32613,-49.99994 76.65223,-99.99994 120.34403,-99.99994 m 120.2333,100.00164 C 1175.88,979.72326 1137.5538,929.72326 1093.862,929.72326 m 120.3211,99.97574 c 38.3262,50 76.6524,100 120.3441,100 m 120.2335,-100.0017 c -38.3262,50 -76.6521,100 -120.344,100 m 120.3364,-99.9914 c 38.3261,-49.99994 76.6524,-99.99994 120.344,-99.99994 m 120.2335,100.00164 c -38.326,-49.99994 -76.6523,-99.99994 -120.3439,-99.99994 m 120.3303,100.02144 c 38.326,50 76.6522,100 120.3438,100 m 120.2335,-100.0017 c -38.326,50 -76.6522,100 -120.344,100 m 120.3361,-99.9914 c 38.3263,-49.99994 76.6523,-99.99994 120.344,-99.99994 m 120.2337,100.00164 c -38.3262,-49.99994 -76.6523,-99.99994 -120.3442,-99.99994 m 120.3218,99.97574 c 38.3261,50 76.6523,100 120.344,100 m 120.2335,-100.0017 c -38.326,50 -76.6522,100 -120.344,100 m 120.3361,-99.9914 c 38.3262,-49.99994 76.6523,-99.99994 120.3441,-99.99994 m 120.2335,100.00164 c -38.3262,-49.99994 -76.6523,-99.99994 -120.344,-99.99994 m 120.339,99.99244 c 38.3261,50 76.6523,100 120.3441,100 m 120.2335,-100.0017 c -38.3262,50 -76.6523,100 -120.3441,100 m 120.3365,-99.9914 c 38.3262,-49.99994 76.6523,-99.99994 120.3441,-99.99994 m 120.2334,100.00164 c -38.3261,-49.99994 -76.6521,-99.99994 -120.344,-99.99994 m 120.3213,99.97574 c 38.3259,50 76.6522,100 120.344,100 m 120.2336,-100.0017 c -38.3262,50 -76.6523,100 -120.3441,100 m 120.3364,-99.9914 c 38.3263,-49.99994 76.6523,-99.99994 120.3442,-99.99994 m 120.2335,100.00164 c -38.3262,-49.99994 -76.6523,-99.99994 -120.3441,-99.99994 m 120.4039,100.02144 c 38.3262,50 76.6522,100 120.3441,100 m 120.2335,-100.0017 c -38.3261,50 -76.6523,100 -120.3441,100 m 120.3362,-99.9914 c 38.3261,-49.99994 76.6523,-99.99994 120.344,-99.99994 m 120.2336,100.00164 c -38.3263,-49.99994 -76.6523,-99.99994 -120.3442,-99.99994 m 120.3218,99.97574 c 38.3262,50 76.6523,100 120.3441,100 m 120.2335,-100.0017 c -38.3261,50 -76.6523,100 -120.344,100 m 120.3361,-99.9914 c 38.3261,-49.99994 76.6522,-99.99994 120.344,-99.99994 m 120.2335,100.00164 c -38.3261,-49.99994 -76.6523,-99.99994 -120.344,-99.99994 m 120.3391,99.99244 c 38.326,50 76.6523,100 120.344,100 m 120.2335,-100.0017 c -38.3262,50 -76.6523,100 -120.344,100 m 120.3365,-99.9914 c 38.3261,-49.99994 76.6521,-99.99994 120.344,-99.99994 m 120.2336,100.00164 c -38.3263,-49.99994 -76.6523,-99.99994 -120.3441,-99.99994 m 120.3213,99.97574 c 38.3261,50 76.6519,100 120.3437,100 m 120.2335,-100.0017 c -38.3258,50 -76.652,100 -120.3438,100 m 120.3363,-99.9914 c 38.3262,-49.99994 76.6525,-99.99994 120.3441,-99.99994 m 120.2336,100.00164 c -38.3263,-49.99994 -76.6524,-99.99994 -120.3442,-99.99994 m 120.3307,100.02144 c 38.3259,50 76.6522,100 120.3438,100 m 120.2335,-100.0017 c -38.326,50 -76.652,100 -120.3436,100 m 120.3357,-99.9914 c 38.3259,-49.99994 76.6528,-99.99994 120.3444,-99.99994 m 120.2332,100.00164 c -38.3262,-49.99994 -76.6521,-99.99994 -120.3441,-99.99994 m 120.3214,99.97574 c 38.3269,50 76.6529,100 120.3444,100 m 120.234,-100.0017 c -38.3268,50 -76.6529,100 -120.3448,100 m 120.3367,-99.9914 c 38.3255,-49.99994 76.6523,-99.99994 120.3438,-99.99994 m 120.2335,100.00164 c -38.3262,-49.99994 -76.6523,-99.99994 -120.3438,-99.99994 m 120.3384,99.99244 c 38.3261,50 76.6528,100 120.3448,100 m 120.233,-100.0017 c -38.3261,50 -76.6517,100 -120.3437,100 m 120.3367,-99.9914 c 38.3262,-49.99994 76.6518,-99.99994 120.3438,-99.99994 m 120.2336,100.00164 c -38.3267,-49.99994 -76.6524,-99.99994 -120.3444,-99.99994 m 120.3215,99.97574 c 38.326,50 76.6519,100 120.3443,100 m 120.2328,-100.0017 c -38.326,50 -76.6519,100 -120.3437,100 m 120.3373,-99.9914 c 38.3253,-49.99994 76.6512,-99.99994 120.3429,-99.99994 m 120.2327,100.00164 c -38.3252,-49.99994 -76.6511,-99.99994 -120.3422,-99.99994"
         style="fill:none;fill-opacity:0.75;fill-rule:evenodd;stroke:#dd00da;stroke-width:14.44388485;stroke-linecap:butt;stroke-linejoin:miter;stroke-miterlimit:4;stroke-dasharray:none;stroke-opacity:1"
         id="path7558"
         inkscape:connector-curvature="0" />
    </g>
  </g>
</svg>
