<?xml version="1.0" encoding="UTF-8" standalone="no"?>
<!-- Created with Inkscape (http://www.inkscape.org/) -->

<svg
   xmlns:dc="http://purl.org/dc/elements/1.1/"
   xmlns:cc="http://creativecommons.org/ns#"
   xmlns:rdf="http://www.w3.org/1999/02/22-rdf-syntax-ns#"
   xmlns:svg="http://www.w3.org/2000/svg"
   xmlns="http://www.w3.org/2000/svg"
   xmlns:sodipodi="http://sodipodi.sourceforge.net/DTD/sodipodi-0.dtd"
   xmlns:inkscape="http://www.inkscape.org/namespaces/inkscape"
   version="1.0"
   width="1800pt"
   height="600pt"
   id="svg2"
   sodipodi:docname="timbre.svg"
   inkscape:version="0.92.2 (5c3e80d, 2017-08-06)">
  <sodipodi:namedview
     pagecolor="#ffffff"
     bordercolor="#666666"
     borderopacity="1"
     objecttolerance="10"
     gridtolerance="10"
     guidetolerance="10"
     inkscape:pageopacity="0"
     inkscape:pageshadow="2"
     inkscape:window-width="1600"
     inkscape:window-height="874"
     id="namedview13"
     showgrid="false"
     inkscape:zoom="0.36887404"
     inkscape:cx="933.41817"
     inkscape:cy="605.12812"
     inkscape:window-x="0"
     inkscape:window-y="0"
     inkscape:window-maximized="1"
     inkscape:current-layer="g1430" />
  <metadata
     id="metadata15">
    <rdf:RDF>
      <cc:Work
         rdf:about="">
        <dc:format>image/svg+xml</dc:format>
        <dc:type
           rdf:resource="http://purl.org/dc/dcmitype/StillImage" />
        <dc:title></dc:title>
      </cc:Work>
    </rdf:RDF>
  </metadata>
  <defs
     id="defs4" />
  <g
     id="layer1">
    <g
       id="g1430"
       transform="matrix(0.312578,0,0,0.552047,68.91378,101.167)">
      <g
         id="g1384"
         transform="translate(-224,-2)">
        <g
           id="g1321"
           transform="translate(6.14935,-66.0035)" />
      </g>
      <path
         style="fill:#ffffff;fill-opacity:1;stroke:#f80000;stroke-width:14.17354774;stroke-miterlimit:4;stroke-dasharray:none;stroke-dashoffset:0;stroke-opacity:1"
         d="M -216.48231,38.741458 C -34.034244,-93.612981 148.41383,-182.00525 330.86186,-99.599714 513.31,-17.194172 695.75802,181.65367 878.20615,211.25008 1060.6541,240.8465 1243.1022,81.279561 1425.5504,-38.032098 c 182.448,-119.311662 364.8961,-119.182802 547.3441,0 182.4482,119.182794 364.8962,278.589028 547.3442,249.282178 182.4481,-29.30685 364.8961,-228.212046 547.3442,-310.849794 182.4481,-82.637756 364.8962,5.986733 547.3442,138.341172 182.448,132.354442 364.8962,220.746712 547.3443,138.341172 182.4481,-82.405537 364.8961,-281.25338 547.3442,-310.84979 182.448,-29.59642 364.896,129.9705191 547.3442,249.28218 182.448,119.31166 364.8961,119.1828 547.3441,0 182.4481,-119.1828009 364.8962,-278.58904 547.3442,-249.28218 182.4482,29.30685 364.8962,228.212041 547.3443,310.84979 182.4481,82.63775 364.8962,-5.98673 547.3442,-138.341172"
         title="sin(5.0*x)"
         id="path1299"
         inkscape:connector-curvature="0" />
      <path
         style="fill:#ffffff;fill-opacity:1;stroke:#0000ff;stroke-width:11.90924072;stroke-miterlimit:4;stroke-dasharray:none;stroke-dashoffset:0;stroke-opacity:1"
         d="m -211.15673,409.16473 c 65.59166,-84.65846 131.1833,-140.69049 196.774951,-87.22259 65.591647,53.4679 131.183289,180.52222 196.774939,197.54963 65.59165,17.02742 131.18329,-87.6504 196.77494,-162.65611 65.59164,-75.00572 131.1833,-69.65405 196.77494,8.19258 65.59165,77.84663 131.18329,175.75515 196.77494,152.2934 65.59164,-23.46176 131.1833,-152.65704 196.77494,-200.82709 65.59168,-48.17007 131.18328,17.33931 196.77498,101.73093 65.5916,84.39162 131.1833,130.72469 196.7749,72.14857 65.5917,-58.57612 131.1833,-182.69177 196.775,-192.99099 65.5916,-10.29923 131.1833,100.36043 196.7749,171.96395 65.5917,71.60352 131.1833,55.74678 196.775,-24.52462 65.5915,-80.2714 131.1832,-170.87403 196.7748,-140.94299 65.5917,29.93103 131.1833,160.39019 196.775,202.80211 65.5916,42.4119 131.1833,-32.00205 196.7749,-115.57952 65.5917,-83.57748 131.1834,-119.91111 196.775,-56.60665 65.5917,63.30446 131.1833,183.67649 196.775,187.18074 65.5916,3.50425 131.1833,-112.41959 196.7749,-180.15654 65.5917,-67.73695 131.1833,-41.47799 196.7748,40.6976 65.5917,82.1756 131.1834,164.88472 196.775,128.67852 65.5917,-36.2062 131.1833,-167.08316 196.775,-203.46187 65.5916,-36.37871 131.1833,46.45723 196.7749,128.67852 65.5917,82.22129 131.1833,108.31984 196.775,40.6976 65.5917,-67.62224 131.1833,-183.46999 196.775,-180.15653 65.5916,3.31345 131.1833,123.74965 196.7749,187.18073 65.5915,63.43108 131.1832,26.9402 196.7748,-56.60664 65.5917,-83.54685 131.1833,-157.82607 196.775,-115.57952 65.5917,42.24655 131.1833,172.69253 196.775,202.80211 65.5916,30.10957 131.1833,-60.61112 196.7749,-140.94299 65.5917,-80.33188 131.1833,-96.02609 196.775,-24.52462 65.5916,71.50146 131.1833,182.07362 196.7749,171.96395 65.5917,-10.10968 131.1834,-134.27716 196.7749,-192.991 65.5916,-58.71384 131.1833,-12.22768 196.7749,72.14858 65.5917,84.37626 131.1833,149.74385 196.775,101.73093 65.5916,-48.01291 131.1833,-177.18193 196.775,-200.82709 65.5916,-23.64516 131.1833,74.37193 196.7749,152.2934 65.5917,77.92146 131.1833,83.10955 196.775,8.19258 65.5916,-74.91698 131.1833,-179.49644 196.7749,-162.65612 65.5915,16.84032 131.1832,143.93383 196.7749,197.54963 65.5916,53.61581 131.1833,-2.56412 196.7749,-87.22258"
         title="sin(14.0*x)"
         id="path1341"
         inkscape:connector-curvature="0" />
      <path
         id="path1364"
         title="sin(14.0*x) + 0.5*sin(5.0*x)"
         d="M -211.10367,908.42893 C -145.73531,749.31725 -80.366942,636.02683 -14.998577,704.58436 50.369773,773.14189 115.73814,966.5414 181.1065,994.65585 246.47485,1022.7704 311.84321,867.01538 377.21152,765.44319 442.5799,663.87103 507.94828,697.09802 573.31666,845.26952 638.68503,993.441 704.05341,1172.6118 769.4218,1150.452 c 65.36824,-22.1597 130.73662,-220.96222 196.105,-300.67467 65.3684,-79.71242 130.7367,11.72582 196.1051,127.03709 65.3684,115.31158 130.7368,163.92388 196.105,46.71588 65.3684,-117.20791 130.7368,-337.1214 196.1052,-367.24827 65.3684,-30.12687 130.7367,141.15231 196.1051,260.15024 65.3684,118.99813 130.7366,108.51093 196.105,0.87348 65.3684,-107.63731 130.7368,-226.42785 196.1051,-155.28761 65.3684,71.14029 130.7368,299.97816 196.1052,379.67426 65.3682,79.6961 130.7366,-35.8515 196.105,-175.82969 65.3683,-139.97785 130.7367,-214.3928 196.1051,-134.78392 65.3684,79.60895 130.7368,245.62151 196.105,228.33941 65.3684,-17.2821 130.7368,-221.61387 196.1051,-339.97681 65.3684,-118.36289 130.7368,-77.51818 196.1052,62.0659 65.3682,139.58413 130.7366,289.52161 196.105,253.95891 65.3683,-35.56287 130.7367,-218.24424 196.1051,-254.07443 65.3684,-35.83014 130.7367,114.28359 196.105,253.95893 65.3684,139.6752 130.7367,180.2284 196.1051,62.066 65.3684,-118.16275 130.7368,-322.39668 196.1052,-339.97686 65.3683,-17.58017 130.7366,148.53733 196.1049,228.33917 65.3684,79.80199 130.7368,5.16373 196.1052,-134.78393 65.3684,-139.94767 130.7367,-255.24496 196.1051,-175.82939 65.3683,79.41554 130.7366,308.2536 196.105,379.67421 65.3684,71.4203 130.7368,-47.5645 196.1051,-155.28785 65.3684,-107.72335 130.7368,-117.9807 196.105,0.87353 65.3684,118.85432 130.7368,289.95902 196.1052,260.15042 65.3684,-29.8085 130.7367,-249.82404 196.1051,-367.24838 65.3682,-117.42435 130.7366,-68.55935 196.105,46.71575 65.3684,115.27508 130.7368,206.51843 196.1051,127.0371 65.3684,-79.48113 130.7368,-278.20718 196.105,-300.67447 65.3684,-22.46728 130.7368,156.89302 196.1052,305.1823 65.3683,148.2895 130.7367,181.2443 196.1051,79.8266 65.3684,-101.41806 130.7366,-257.04846 196.105,-229.21292 65.3684,27.83548 130.7367,221.26432 196.1051,290.07172 65.3684,68.8074 130.7368,-44.733 196.1052,-203.84477"
         style="fill:#ffffff;fill-opacity:1;stroke:#ff00ff;stroke-width:11.42807388;stroke-miterlimit:4;stroke-dasharray:none;stroke-dashoffset:0;stroke-opacity:1"
         inkscape:connector-curvature="0" />
    </g>
  </g>
</svg>
